<?xml version="1.0" ?><!DOCTYPE svg  PUBLIC '-//W3C//DTD SVG 1.1//EN'  'http://www.w3.org/Graphics/SVG/1.1/DTD/svg11.dtd'><svg enable-background="new 0 0 512 512" id="Layer_1" version="1.1" viewBox="0 0 512 512" xml:space="preserve" xmlns="http://www.w3.org/2000/svg" xmlns:xlink="http://www.w3.org/1999/xlink"><circle cx="256" cy="256" fill="#306FC5" id="ellipse" r="256"/><g id="logo"><polygon fill="#FFFFFF" points="97.1,224.3 109.6,224.3 103.4,208.3  "/><polygon fill="#FFFFFF" points="163.9,278 163.9,285.4 185,285.4 185,293.4 163.9,293.4 163.9,302 187.3,302 198.1,290 187.9,278     "/><polygon fill="#FFFFFF" points="328.9,208.3 322.1,224.3 335.2,224.3  "/><polygon fill="#FFFFFF" points="225,306.5 225,274 210.1,290  "/><path d="M253,283.1c-0.6-3.4-2.9-5.1-6.3-5.1h-12v10.3h12.6C250.7,288.3,253,286.6,253,283.1z" fill="#FFFFFF"/><path d="M292.9,287.1c1.1-0.6,1.7-2.3,1.7-4c0.6-2.3-0.6-3.4-1.7-4c-1.1-0.6-2.9-0.6-4.6-0.6h-11.4v9.1h11.4   C290.1,287.7,291.8,287.7,292.9,287.1z" fill="#FFFFFF"/><path d="M375.2,193.5v6.9l-3.4-6.9h-26.8v6.9l-3.4-6.9h-36.5c-6.3,0-11.4,1.1-16,3.4v-3.4h-25.7v0.6v2.9   c-2.9-2.3-6.3-3.4-10.8-3.4h-91.9l-6.3,14.3l-6.3-14.3h-20.6h-8.6v6.9l-2.9-6.9h-0.6H90.8l-11.4,26.8l-13.1,29.1L66,250h0.2h29.1   h0.4l0.2-0.6l3.4-8.6h7.4l3.4,9.1h33.1v-0.6v-6.3l2.9,6.9h16.6l2.9-6.9v6.3v0.6h13.1h65.7h0.6v-14.8h1.1c1.1,0,1.1,0,1.1,1.7v12.6   h41.1V246c3.4,1.7,8.6,3.4,15.4,3.4h17.1l3.4-9.1h8l3.4,9.1h33.1v-5.7v-2.9l5.1,8.6h1.1h0.6h25.1v-56H375.2L375.2,193.5   L375.2,193.5z M181.6,241.4h-5.7h-3.4V238v-28l-0.6,1.3v0l-13.3,30.1h-0.4h-3.1h-4.9L136.5,210v31.4h-19.4l-4-8.6H93.6l-4,8.6h-10   l16.9-40h14.3l16,38.3v-38.3h3.4h11.7l0.3,0.6h0l7.2,15.7l5.2,11.7l0.2-0.6l11.4-27.4h15.4L181.6,241.4L181.6,241.4L181.6,241.4z    M221,210h-22.3v7.4h21.7v8h-21.7v8H221v8.6h-32v-40.5h32V210L221,210z M261.7,224.8C261.7,224.8,261.8,224.8,261.7,224.8   c0.3,0.3,0.5,0.5,0.6,0.7c1.1,1.4,2,3.6,2,6.7c0,0.1,0,0.1,0,0.2c0,0,0,0.1,0,0.1c0,0,0,0,0,0c0,0.3,0,0.6,0,1v8h-8.6v-4.6   c0-2.3,0-5.7-1.7-8c-0.5-0.5-1.1-0.9-1.7-1.1c-0.9-0.6-2.5-0.6-5.2-0.6H237v14.3h-9.7v-40H249c5.1,0,8.6,0,11.4,1.7   c2.8,1.7,4.5,4.5,4.6,8.9c-0.1,6.1-4,9.4-6.8,10.5C258.1,222.6,260,223,261.7,224.8z M280.9,241.4h-9.7v-40h9.7V241.4z    M392.3,241.4h-12.6l-18.3-30.3v25.1l-0.1-0.1v5.2h-9.6v0H342l-3.4-8.6h-20l-3.4,9.1h-10.8c-4.6,0-10.3-1.1-13.7-4.6   c-3.4-3.4-5.1-8-5.1-15.4c0-5.7,1.1-11.4,5.1-16c2.9-3.4,8-4.6,14.3-4.6h9.1v8.6h-9.1c-3.4,0-5.1,0.6-7.4,2.3   c-1.7,1.7-2.9,5.1-2.9,9.1c0,4.6,0.6,7.4,2.9,9.7c1.7,1.7,4,2.3,6.9,2.3h4l13.1-31.4h5.7h8.6l16,38.3v-2v-12.9v-1.1V202H366   l16.6,28v-28h9.7L392.3,241.4L392.3,241.4L392.3,241.4z" fill="#FFFFFF"/><path d="M253.6,218.1c0.2-0.2,0.3-0.4,0.4-0.6c0.5-0.8,1.1-2.3,0.8-4.3c0-0.2,0-0.4-0.1-0.5c0,0,0-0.1,0-0.1l0,0   c-0.3-1-1-1.6-1.7-1.9c-1.1-0.6-2.9-0.6-4.6-0.6H237v9.1h11.4c1.7,0,3.4,0,4.6-0.6c0.2-0.1,0.3-0.2,0.5-0.3l0,0   C253.4,218.3,253.5,218.2,253.6,218.1z" fill="#FFFFFF"/><path d="M426,298.5c0-4-1.1-8-2.9-10.9V262h0v-1.7c0,0-23.9,0-27.5,0c-3.6,0-7.9,3.4-7.9,3.4v-3.4h-26.3   c-4,0-9.1,1.1-11.4,3.4v-3.4h-46.8v1.7v1.7c-3.4-2.9-9.7-3.4-12.6-3.4h-30.8v1.7v1.7c-2.9-2.9-9.7-3.4-13.1-3.4h-34.3l-8,8.6   l-7.4-8.6h-2.4h-3.9h-45.1v1.7v4.5V318h50.3l8.3-8.3l7.2,8.3h0.6h29h1.3h0.6h0.6v-5.7v-7.4h2.9c4,0,9.1,0,13.1-1.7v14.3v1.1h25.7   v-1.1v-13.7h1.1c1.7,0,1.7,0,1.7,1.7v12v1.1h77.7c5.1,0,10.3-1.1,13.1-3.4v2.3v1.1h24.6c5.1,0,10.3-0.6,13.7-2.9   c5.3-3.2,8.6-8.7,9.1-15.4c0-0.2,0.1-0.4,0.1-0.6l0,0C426,299.3,426,298.9,426,298.5z M246.1,295.1h-11.4v1.7v3.4v3.4v6.3h-18.8   L205,297.4l0,0l-0.5-0.6L191.9,310h-36.5v-40h37.1l10.1,11.1l2.1,2.3l0.3-0.3l12-13.1h30.3c5.9,0,12.5,1.4,14.9,7.4   c0.3,1.2,0.5,2.5,0.5,4C262.7,292.8,254.7,295.1,246.1,295.1z M303.2,294.5c1.1,1.7,1.7,4,1.7,7.4v8h-9.7v-5.1c0-2.3,0-6.3-1.7-8   c-1.1-1.7-3.4-1.7-6.9-1.7h-10.3V310h-9.7v-40.5h21.7c4.6,0,8.6,0,11.4,1.7c2.9,1.7,5.1,4.6,5.1,9.1c0,6.3-4,9.7-6.9,10.9   C300.9,292.3,302.6,293.4,303.2,294.5z M342.6,278h-22.3v7.4H342v8h-21.7v8h22.3v8.6h-32v-40.5h32V278z M366.6,310h-18.3v-8.6h18.3   c1.7,0,2.9,0,4-1.1c0.6-0.6,1.1-1.7,1.1-2.9c0-1.1-0.6-2.3-1.1-2.9c-0.6-0.6-1.7-1.1-3.4-1.1c-9.1-0.6-20,0-20-12.6   c0-5.7,3.4-12,13.7-12h18.8v9.7H362c-1.7,0-2.9,0-4,0.6c-1.1,0.6-1.1,1.7-1.1,2.9c0,1.7,1.1,2.3,2.3,2.9c1.1,0.6,2.3,0.6,3.4,0.6   h5.1c5.1,0,8.6,1.1,10.8,3.4c1.7,1.7,2.9,4.6,2.9,8.6C381.5,306,376.3,310,366.6,310z M415.7,306c-2.3,2.3-6.3,4-12,4h-18.3v-8.6   h18.3c1.7,0,2.9,0,4-1.1c0.6-0.6,1.1-1.7,1.1-2.9c0-1.1-0.6-2.3-1.1-2.9c-0.6-0.6-1.7-1.1-3.4-1.1c-9.1-0.6-20,0-20-12.6   c0-5.4,3.1-10.3,10.8-11.8c0.9-0.1,1.9-0.2,2.9-0.2h18.8v9.7h-12.6h-4.6h-0.6c-1.7,0-2.9,0-4,0.6c-0.6,0.6-1.1,1.7-1.1,2.9   c0,1.7,0.6,2.3,2.3,2.9c1.1,0.6,2.3,0.6,3.4,0.6h0.6h4.6c2.5,0,4.4,0.3,6.1,0.9c1.6,0.6,6.8,2.9,8,9c0.1,0.6,0.2,1.3,0.2,2   C419.1,300.8,418,303.7,415.7,306z" fill="#FFFFFF"/></g></svg>