<?xml version="1.0" encoding="utf-8"?>
<!-- Generator: Adobe Illustrator 23.0.2, SVG Export Plug-In . SVG Version: 6.00 Build 0)  -->
<svg version="1.1" id="Layer_1" xmlns="http://www.w3.org/2000/svg" xmlns:xlink="http://www.w3.org/1999/xlink" x="0px" y="0px"
	 viewBox="0 0 118 57" style="enable-background:new 0 0 118 57;" xml:space="preserve">
<style type="text/css">
	.st0{fill:#1B5ECE;}
	.st1{fill:none;}
</style>
<g id="Ebene_2">
	<g>
		<rect x="87.02" y="1.58" class="st0" width="12.1" height="54.14"/>
		<circle class="st0" cx="111.2" cy="49.67" r="6.05"/>
		<g>
			<path class="st0" d="M28.66,56.92c-15.61,0-28.31-12.7-28.31-28.31S13.05,0.3,28.66,0.3c5.56,0,10.95,1.61,15.57,4.67
				l-6.78,10.29c-2.61-1.72-5.64-2.63-8.79-2.63c-8.81,0-15.98,7.17-15.98,15.98s7.17,15.98,15.98,15.98c3.2,0,6.29-0.94,8.93-2.73
				l6.9,10.21C39.81,55.24,34.33,56.92,28.66,56.92z"/>
		</g>
		<g>
			<path class="st0" d="M57.71,32.46L67.18,31c2.18-0.32,2.91-1.38,2.91-2.75c0-2.35-2.02-4.37-5.9-4.37c-4.29,0-6.63,2.91-6.87,5.9
				L46.64,27.6c0.49-5.74,5.82-13.35,17.63-13.35c13.02,0,17.79,7.28,17.79,15.53v25.88h-11c0,0,0-1.78,0-4.53
				c-2.1,3.4-5.99,5.66-11.32,5.66c-8.82,0-13.91-5.82-13.91-12.21C45.82,37.48,51.08,33.43,57.71,32.46z M70.09,39.9v-1.78
				l-7.6,1.21c-2.59,0.4-4.53,1.62-4.53,4.45c0,2.1,1.38,4.13,4.77,4.13C66.37,47.91,70.09,46.13,70.09,39.9z"/>
		</g>
		<rect x="-1.04" y="-9.45" class="st1" width="121.77" height="71.63"/>
	</g>
</g>
</svg>
