<?xml version="1.0" encoding="UTF-8" standalone="no"?>
<!-- Created with Inkscape (http://www.inkscape.org/) -->

<svg
   version="1.1"
   id="svg2"
   xml:space="preserve"
   width="44.719494"
   height="29.091621"
   viewBox="0 0 44.719494 29.09162"
   sodipodi:docname="Isracard_2020_Logo.svg"
   inkscape:version="1.2.1 (9c6d41e, 2022-07-14)"
   xmlns:inkscape="http://www.inkscape.org/namespaces/inkscape"
   xmlns:sodipodi="http://sodipodi.sourceforge.net/DTD/sodipodi-0.dtd"
   xmlns="http://www.w3.org/2000/svg"
   xmlns:svg="http://www.w3.org/2000/svg"
   xmlns:rdf="http://www.w3.org/1999/02/22-rdf-syntax-ns#"
   xmlns:cc="http://creativecommons.org/ns#"
   xmlns:dc="http://purl.org/dc/elements/1.1/"><metadata
     id="metadata8"><rdf:RDF><cc:Work
         rdf:about=""><dc:format>image/svg+xml</dc:format><dc:type
           rdf:resource="http://purl.org/dc/dcmitype/StillImage" /></cc:Work></rdf:RDF></metadata><defs
     id="defs6"><clipPath
       clipPathUnits="userSpaceOnUse"
       id="clipPath474"><path
         d="M 0,0 H 595.276 V 841.89 H 0 Z"
         id="path472"
         inkscape:connector-curvature="0" /></clipPath><clipPath
       clipPathUnits="userSpaceOnUse"
       id="clipPath498"><path
         d="m 81.564,780.94 c 0,-12.55 9.543,-22.871 21.769,-24.104 v 0 h 4.919 c 11.635,1.174 20.842,10.581 21.702,22.307 v 0 3.594 c -0.92,12.543 -11.385,22.431 -24.162,22.431 v 0 c -13.381,0 -24.228,-10.847 -24.228,-24.228"
         id="path496"
         inkscape:connector-curvature="0" /></clipPath><clipPath
       clipPathUnits="userSpaceOnUse"
       id="clipPath512"><path
         d="M 0,0 H 595.276 V 841.89 H 0 Z"
         id="path510"
         inkscape:connector-curvature="0" /></clipPath><clipPath
       clipPathUnits="userSpaceOnUse"
       id="clipPath532"><path
         d="M 0,0 H 595.276 V 841.89 H 0 Z"
         id="path530"
         inkscape:connector-curvature="0" /></clipPath></defs><sodipodi:namedview
     pagecolor="#ffffff"
     bordercolor="#666666"
     borderopacity="1"
     objecttolerance="10"
     gridtolerance="10"
     guidetolerance="10"
     inkscape:pageopacity="0"
     inkscape:pageshadow="2"
     inkscape:window-width="1334"
     inkscape:window-height="772"
     id="namedview4"
     showgrid="false"
     fit-margin-top="0"
     fit-margin-left="0"
     fit-margin-right="0"
     fit-margin-bottom="0"
     inkscape:zoom="8.5103448"
     inkscape:cx="-27.730956"
     inkscape:cy="14.335494"
     inkscape:window-x="178"
     inkscape:window-y="354"
     inkscape:window-maximized="0"
     inkscape:current-layer="g470"
     inkscape:showpageshadow="2"
     inkscape:pagecheckerboard="0"
     inkscape:deskcolor="#d1d1d1" /><g
     id="g10"
     inkscape:groupmode="layer"
     inkscape:label="pdf"
     transform="matrix(1.3333333,0,0,-1.3333333,-641.13036,1074.8739)"><g
       id="g468"
       transform="matrix(0.99907123,0,0,0.99907123,0.37674167,1.0687886)"><g
         id="g470"
         clip-path="url(#clipPath474)"><g
           id="g476"
           transform="translate(481.5102,796.3456)"><path
             d="m 0,0 c -0.79,-0.79 -0.79,-2.071 0,-2.861 l 8.897,-8.896 c 0.79,-0.79 2.07,-0.79 2.86,0 l 8.897,8.896 c 0.79,0.79 0.79,2.071 0,2.861 l -8.897,8.897 c -0.79,0.79 -2.07,0.79 -2.86,0 z"
             style="fill:#ee2d24;fill-opacity:1;fill-rule:nonzero;stroke:none"
             id="path478"
             inkscape:connector-curvature="0" /></g><g
           id="g480"
           transform="translate(493.242,796.3456)"><path
             d="m 0,0 c -0.79,-0.79 -0.79,-2.071 0,-2.861 l 8.897,-8.896 c 0.79,-0.79 2.07,-0.79 2.86,0 l 8.897,8.896 c 0.79,0.79 0.79,2.071 0,2.861 l -8.897,8.897 c -0.79,0.79 -2.07,0.79 -2.86,0 z"
             style="fill:#352aff;fill-opacity:1;fill-rule:nonzero;stroke:none"
             id="path482"
             inkscape:connector-curvature="0" /></g></g></g></g></svg>
